<?xml version="1.0" standalone="no"?>
<!DOCTYPE svg PUBLIC "-//W3C//DTD SVG 20010904//EN"
 "http://www.w3.org/TR/2001/REC-SVG-20010904/DTD/svg10.dtd">
<svg version="1.0" xmlns="http://www.w3.org/2000/svg"
 width="1977.000000pt" height="1410.000000pt" viewBox="0 0 1977.000000 1410.000000"
 preserveAspectRatio="xMidYMid meet">

<g transform="translate(0.000000,1410.000000) scale(0.100000,-0.100000)"
fill="#000000" stroke="none">
<path d="M9395 14089 c-1453 -115 -2756 -855 -3606 -2047 -468 -656 -767
-1443 -866 -2277 -22 -192 -25 -741 -5 -880 25 -164 52 -298 99 -488 25 -103
44 -189 42 -191 -2 -1 -125 -51 -274 -111 -1181 -472 -2236 -985 -2995 -1458
-1376 -856 -1895 -1650 -1540 -2357 229 -455 826 -731 1810 -834 258 -28 428
-37 795 -43 940 -15 2068 79 3400 283 320 49 894 146 952 160 17 5 27 -2 46
-33 14 -21 104 -163 201 -315 462 -728 1036 -1578 1615 -2388 297 -416 683
-940 692 -940 13 0 520 692 861 1175 947 1341 1813 2689 2447 3809 l141 250
238 81 c2261 777 4165 1678 5206 2463 267 202 555 470 700 652 253 319 369
617 353 909 -26 468 -353 826 -937 1026 -472 161 -984 231 -1785 242 -686 9
-1372 -29 -2210 -123 -126 -15 -243 -27 -259 -28 -28 -1 -28 0 -72 152 -206
716 -568 1338 -1084 1866 -391 400 -784 684 -1285 931 -591 291 -1240 463
-1940 515 -160 11 -591 11 -740 -1z m636 -2009 c559 -56 1076 -266 1516 -616
130 -103 340 -314 443 -444 99 -125 209 -290 279 -419 54 -99 141 -284 141
-299 0 -5 -152 -39 -337 -75 -1585 -314 -3256 -748 -4851 -1259 -156 -49 -286
-88 -289 -85 -25 26 -31 487 -8 682 112 955 693 1786 1555 2222 289 147 623
248 930 282 52 6 109 13 125 15 70 8 401 5 496 -4z m7115 -2300 c406 -14 707
-44 974 -96 230 -45 446 -116 538 -177 61 -41 65 -73 24 -160 -42 -88 -104
-166 -234 -292 -659 -642 -2332 -1518 -4348 -2279 -123 -47 -226 -84 -227 -82
-1 1 27 67 63 146 391 857 621 1593 679 2171 l7 66 -68 17 c-131 31 -270 47
-469 53 -344 10 -748 -25 -1307 -113 l-168 -26 -4 -32 c-2 -17 -12 -87 -21
-156 -107 -782 -574 -1518 -1250 -1965 -364 -241 -743 -384 -1200 -452 -183
-27 -591 -24 -780 5 -510 79 -950 268 -1355 583 -176 136 -411 380 -539 557
-24 34 -50 62 -57 62 -38 0 -1874 -632 -1874 -645 0 -16 226 -489 376 -785
203 -404 383 -737 617 -1145 85 -149 153 -271 152 -272 -3 -5 -541 -91 -790
-127 -729 -107 -1350 -172 -2060 -218 -316 -21 -1310 -17 -1545 5 -337 32
-612 79 -813 138 -107 32 -245 92 -298 130 -29 20 -31 25 -25 66 32 238 556
683 1351 1148 518 303 1266 675 1975 983 3070 1331 7430 2478 10650 2801 505
51 898 78 1304 90 369 11 435 11 722 1z"/>
</g>
</svg>
